<mxfile host="app.diagrams.net" modified="2022-08-22T08:24:58.339Z" agent="5.0 (X11; Linux x86_64) AppleWebKit/537.36 (KHTML, like Gecko) Chrome/104.0.0.0 Safari/537.36" etag="WJSN9odW7mq-Qeam7A6M" version="20.2.5" type="github">
  <diagram id="DPi9_XITnpIse1BLLOUD" name="Page-1">
    <mxGraphModel dx="2249" dy="773" grid="1" gridSize="10" guides="1" tooltips="1" connect="1" arrows="1" fold="1" page="1" pageScale="1" pageWidth="827" pageHeight="1169" math="0" shadow="0">
      <root>
        <mxCell id="0" />
        <mxCell id="1" parent="0" />
        <mxCell id="342qyx0WMo6BJ1TXW794-1" value="&lt;b&gt;Node -1&lt;br&gt;&lt;/b&gt;Emotion Board (admiration: 0.43, anger: 0, disgust: 0.92)&lt;br&gt;Emotion with highest score: disgust" style="rounded=0;whiteSpace=wrap;html=1;" vertex="1" parent="1">
          <mxGeometry x="260" y="70" width="270" height="140" as="geometry" />
        </mxCell>
        <mxCell id="342qyx0WMo6BJ1TXW794-2" value="&lt;b&gt;Node -3&lt;br&gt;&lt;/b&gt;Emotion Board (neutral: 0.73, amusement: 0, approval: 0.92)&lt;br&gt;Emotion with highest score: approval" style="rounded=0;whiteSpace=wrap;html=1;" vertex="1" parent="1">
          <mxGeometry x="530" y="350" width="270" height="140" as="geometry" />
        </mxCell>
        <mxCell id="342qyx0WMo6BJ1TXW794-3" value="&lt;b&gt;Node -2&lt;br&gt;&lt;/b&gt;Emotion Board (care: 0.49, anger: 0, disgust: 0.22)&lt;br&gt;Emotion with highest score: care" style="rounded=0;whiteSpace=wrap;html=1;" vertex="1" parent="1">
          <mxGeometry x="20" y="350" width="270" height="140" as="geometry" />
        </mxCell>
        <mxCell id="342qyx0WMo6BJ1TXW794-4" value="&lt;b&gt;Node -4&lt;br&gt;&lt;/b&gt;Emotion Board (admiration: 0.43, anger: 0, disgust: 0.92)&lt;br&gt;Emotion with highest score: disgust" style="rounded=0;whiteSpace=wrap;html=1;" vertex="1" parent="1">
          <mxGeometry x="-130" y="585" width="270" height="140" as="geometry" />
        </mxCell>
        <mxCell id="342qyx0WMo6BJ1TXW794-5" value="&lt;b&gt;Node -5&lt;br&gt;&lt;/b&gt;Emotion Board (admiration: 0.43, anger: 0, disgust: 0.92)&lt;br&gt;Emotion with highest score: disgust" style="rounded=0;whiteSpace=wrap;html=1;" vertex="1" parent="1">
          <mxGeometry x="180" y="585" width="270" height="140" as="geometry" />
        </mxCell>
        <mxCell id="342qyx0WMo6BJ1TXW794-6" value="" style="endArrow=classic;html=1;rounded=0;" edge="1" parent="1" target="342qyx0WMo6BJ1TXW794-1">
          <mxGeometry width="50" height="50" relative="1" as="geometry">
            <mxPoint x="240" y="350" as="sourcePoint" />
            <mxPoint x="290" y="300" as="targetPoint" />
          </mxGeometry>
        </mxCell>
        <mxCell id="342qyx0WMo6BJ1TXW794-7" value="" style="endArrow=classic;html=1;rounded=0;" edge="1" parent="1">
          <mxGeometry width="50" height="50" relative="1" as="geometry">
            <mxPoint x="36.66999999999999" y="585" as="sourcePoint" />
            <mxPoint x="110" y="490" as="targetPoint" />
            <Array as="points">
              <mxPoint x="46.66999999999999" y="575" />
            </Array>
          </mxGeometry>
        </mxCell>
        <mxCell id="342qyx0WMo6BJ1TXW794-8" value="" style="endArrow=classic;html=1;rounded=0;exitX=0.5;exitY=0;exitDx=0;exitDy=0;" edge="1" parent="1" source="342qyx0WMo6BJ1TXW794-5">
          <mxGeometry width="50" height="50" relative="1" as="geometry">
            <mxPoint x="196.67000000000007" y="585" as="sourcePoint" />
            <mxPoint x="270" y="490" as="targetPoint" />
            <Array as="points">
              <mxPoint x="290" y="530" />
            </Array>
          </mxGeometry>
        </mxCell>
        <mxCell id="342qyx0WMo6BJ1TXW794-9" value="" style="endArrow=classic;html=1;rounded=0;exitX=0.5;exitY=0;exitDx=0;exitDy=0;entryX=0.75;entryY=1;entryDx=0;entryDy=0;" edge="1" parent="1" target="342qyx0WMo6BJ1TXW794-1">
          <mxGeometry width="50" height="50" relative="1" as="geometry">
            <mxPoint x="595" y="350" as="sourcePoint" />
            <mxPoint x="550" y="255" as="targetPoint" />
            <Array as="points" />
          </mxGeometry>
        </mxCell>
      </root>
    </mxGraphModel>
  </diagram>
</mxfile>
